<?xml version="1.0" standalone="no"?>
<!DOCTYPE svg PUBLIC "-//W3C//DTD SVG 20010904//EN"
 "http://www.w3.org/TR/2001/REC-SVG-20010904/DTD/svg10.dtd">
<svg version="1.0" xmlns="http://www.w3.org/2000/svg"
 width="180.000000pt" height="180.000000pt" viewBox="0 0 180.000000 180.000000"
 preserveAspectRatio="xMidYMid meet">
<metadata>
Created by potrace 1.14, written by Peter Selinger 2001-2017
</metadata>
<g transform="translate(0.000000,180.000000) scale(0.100000,-0.100000)"
fill="#000000" stroke="none">
<path d="M0 900 l0 -900 900 0 900 0 0 900 0 900 -900 0 -900 0 0 -900z m621
390 c111 -21 201 -86 249 -181 12 -22 20 -42 18 -43 -2 -1 -27 -12 -56 -24
l-52 -21 -19 37 c-46 89 -117 132 -221 132 -157 0 -260 -117 -260 -294 0 -133
49 -230 139 -276 117 -59 277 -15 331 89 40 79 38 81 -110 81 l-130 0 0 50 0
50 190 0 190 0 0 -190 0 -190 -56 0 -56 0 7 42 c4 24 13 58 21 77 18 43 18 41
-11 41 -18 0 -28 -7 -35 -25 -17 -44 -89 -113 -138 -132 -31 -12 -73 -18 -122
-18 -129 1 -233 64 -289 176 -40 80 -55 157 -48 256 11 179 118 311 290 358
64 17 99 18 168 5z m1009 -60 l0 -50 -225 0 -225 0 0 -125 0 -125 175 0 175 0
0 -50 0 -50 -175 0 -175 0 0 -160 0 -160 -55 0 -55 0 0 385 0 385 280 0 280 0
0 -50z"/>
</g>
</svg>
