<!-- Generated by IcoMoon.io -->
<svg version="1.1" xmlns="http://www.w3.org/2000/svg" width="32" height="32" viewBox="0 0 32 32">
<title>list</title>
<path d="M7.2 9.6c-1.325 0-2.4-1.075-2.4-2.4s1.075-2.4 2.4-2.4v0c1.325 0 2.4 1.075 2.4 2.4s-1.075 2.4-2.4 2.4v0zM7.2 18.4c-1.325 0-2.4-1.075-2.4-2.4s1.075-2.4 2.4-2.4v0c1.325 0 2.4 1.075 2.4 2.4s-1.075 2.4-2.4 2.4v0zM7.2 27.2c-1.325 0-2.4-1.075-2.4-2.4s1.075-2.4 2.4-2.4v0c1.325 0 2.4 1.075 2.4 2.4s-1.075 2.4-2.4 2.4v0zM14 8.4c-0.663 0-1.2-0.537-1.2-1.2s0.537-1.2 1.2-1.2v0h12c0.663 0 1.2 0.537 1.2 1.2s-0.537 1.2-1.2 1.2v0h-12zM14 17.2c-0.663 0-1.2-0.537-1.2-1.2s0.537-1.2 1.2-1.2v0h12c0.663 0 1.2 0.537 1.2 1.2s-0.537 1.2-1.2 1.2v0h-12zM14 26c-0.663 0-1.2-0.537-1.2-1.2s0.537-1.2 1.2-1.2v0h12c0.663 0 1.2 0.537 1.2 1.2s-0.537 1.2-1.2 1.2v0h-12z"></path>
</svg>
