<!-- Generated by IcoMoon.io -->
<svg version="1.1" xmlns="http://www.w3.org/2000/svg" width="32" height="32" viewBox="0 0 32 32">
<title>wheelchair</title>
<path d="M12.646 15.008l0.47 2.993c-0.034-0.001-0.074-0.001-0.115-0.001-2.485 0-4.5 2.015-4.5 4.5s2.015 4.5 4.5 4.5c2.485 0 4.5-2.015 4.5-4.5 0-0.687-0.154-1.338-0.429-1.92l0.012 0.027 3.332 0.766c0.054 0.338 0.085 0.728 0.085 1.125 0 4.142-3.358 7.5-7.5 7.5s-7.5-3.358-7.5-7.5c0-2.932 1.682-5.471 4.134-6.704l0.043-0.020-0.813-2.274h-1.865c-0.552 0-1-0.448-1-1s0.448-1 1-1v0h2.57c0.431 0.001 0.798 0.274 0.938 0.656l0.002 0.007 1.064 2.972c0.35-0.067 0.707-0.11 1.072-0.127zM13.142 8.482c-1.772-0.188-3.141-1.675-3.141-3.482 0-1.933 1.567-3.5 3.5-3.5s3.5 1.567 3.5 3.5c0 1.346-0.76 2.515-1.874 3.1l-0.019 0.009 0.722 4.606c0.087-0.015 0.177-0.018 0.269-0.010l6 0.597c0.514 0.046 0.914 0.474 0.914 0.996 0 0.552-0.448 1-1 1-0.040 0-0.078-0.002-0.117-0.007l0.005 0-5.757-0.572 0.338 2.157 6.392 1.468c0.375 0.088 0.665 0.379 0.751 0.747l0.001 0.007 1.855 8.182 2.277-0.567c0.066-0.015 0.142-0.024 0.22-0.024 0.552 0 1 0.448 1 1 0 0.458-0.308 0.844-0.729 0.963l-0.007 0.002-3.268 0.815c-0.073 0.019-0.156 0.030-0.242 0.030-0.474 0-0.871-0.33-0.974-0.772l-0.001-0.007-1.943-8.566-6.439-1.48c-0.397-0.093-0.698-0.414-0.763-0.813l-0.001-0.006-1.47-9.374zM13.5 6.5c0.828 0 1.5-0.672 1.5-1.5s-0.672-1.5-1.5-1.5v0c-0.828 0-1.5 0.672-1.5 1.5s0.672 1.5 1.5 1.5v0zM13 24.5c-1.105 0-2-0.895-2-2s0.895-2 2-2v0c1.105 0 2 0.895 2 2s-0.895 2-2 2v0z"></path>
</svg>
