<svg width="24" height="24" xmlns="http://www.w3.org/2000/svg"><path d="M21.37 7.277c.014.21.014.419.014.628 0 6.391-4.864 13.755-13.755 13.755-2.739 0-5.283-.793-7.424-2.17.39.045.764.06 1.168.06 2.26 0 4.34-.763 6.002-2.066a4.843 4.843 0 01-4.52-3.352c.299.045.598.074.913.074.434 0 .868-.06 1.272-.164a4.835 4.835 0 01-3.877-4.745v-.06c.644.36 1.392.584 2.185.614a4.831 4.831 0 01-2.155-4.026c0-.898.24-1.721.659-2.44a13.742 13.742 0 009.968 5.059 5.46 5.46 0 01-.12-1.108 4.832 4.832 0 014.835-4.834c1.392 0 2.649.584 3.532 1.527a9.518 9.518 0 003.068-1.168 4.821 4.821 0 01-2.125 2.664 9.692 9.692 0 002.784-.748 10.391 10.391 0 01-2.425 2.5z" fill="#000" fill-rule="nonzero"/></svg>